# xmcd
#
# Track frame offsets: 
#        187
#        88032
#        109107
#        122607
#        144957
#        167455
#
# Disc length: 2486 seconds
#
# Revision: 3
# Processed by: cddbd v1.5.2PL0 Copyright (c) Steve Scherf et al.
# Submitted via: ExactAudioCopy v0.95b4
#
DISCID=4209b406
DTITLE=Sonny Rollins - Freedom Suite
DYEAR=1958
DGENRE=Jazz
TTITLE0=The Freedom Suite
TTITLE1=Someday I'll Find You
TTITLE2=Will You Still Be Mine?
TTITLE3=Till There Was You (Take 3)
TTITLE4=Till There Was You (Take 4)
TTITLE5=Shadow Waltz
EXTD=YEAR: 1958
EXTT0=
EXTT1=
EXTT2=
EXTT3=
EXTT4=
EXTT5=
PLAYORDER=
